<?xml version="1.0" standalone="no"?>
<!DOCTYPE svg PUBLIC "-//W3C//DTD SVG 20010904//EN"
 "http://www.w3.org/TR/2001/REC-SVG-20010904/DTD/svg10.dtd">
<svg version="1.0" xmlns="http://www.w3.org/2000/svg"
 width="512.000000pt" height="512.000000pt" viewBox="0 0 512.000000 512.000000"
 preserveAspectRatio="xMidYMid meet">
<metadata>
Created by potrace 1.11, written by Peter Selinger 2001-2013
</metadata>
<g transform="translate(0.000000,512.000000) scale(0.100000,-0.100000)"
fill="#000000" stroke="none">
<path d="M740 5020 c-47 -14 -87 -39 -123 -79 -73 -80 -70 -56 -71 -644 -1
-509 -2 -529 -21 -543 -25 -19 -49 -18 -66 2 -11 13 -14 67 -15 239 -1 198 -4
226 -22 267 -24 55 -53 84 -115 113 -79 38 -187 17 -243 -47 -60 -69 -59 -59
-61 -364 -1 -222 1 -295 13 -345 9 -35 17 -71 19 -80 8 -38 69 -156 109 -214
103 -144 268 -254 442 -296 74 -18 122 -21 281 -22 l191 0 -9 -26 c-53 -139
-178 -315 -291 -410 -83 -69 -108 -108 -108 -169 0 -79 81 -180 180 -226 37
-17 46 -26 39 -37 -28 -45 -52 -158 -52 -249 0 -138 35 -257 108 -365 l27 -39
-32 -63 c-113 -223 -266 -312 -420 -245 -131 56 -219 258 -169 384 19 47 82
72 134 52 23 -9 42 -54 37 -89 -9 -59 -5 -95 13 -115 25 -27 78 -27 104 2 33
35 44 126 25 196 -27 95 -101 151 -211 160 -54 4 -70 1 -117 -22 -101 -49
-148 -136 -148 -269 1 -160 83 -316 212 -403 162 -110 365 -86 517 62 56 55
153 189 153 213 0 19 21 23 38 8 27 -25 136 -76 199 -93 32 -9 122 -19 203
-22 l145 -7 11 -60 c28 -157 63 -220 114 -213 25 4 31 -1 51 -36 12 -23 36
-61 54 -86 29 -41 30 -48 19 -75 -6 -16 -9 -36 -6 -45 16 -48 147 -153 261
-211 51 -26 81 -47 82 -57 5 -160 69 -268 195 -332 42 -22 62 -25 144 -25 112
0 164 21 236 91 72 72 95 130 103 272 1 7 29 25 64 41 124 58 267 178 353 296
58 80 121 222 145 325 12 52 23 101 25 108 2 9 36 12 121 13 65 0 127 2 138 4
11 2 36 7 55 10 53 10 160 54 209 87 34 23 46 26 52 16 5 -7 26 -42 46 -78 50
-85 158 -192 231 -229 135 -68 279 -60 402 23 202 136 279 452 148 610 -106
129 -327 107 -398 -39 -39 -80 -25 -218 24 -244 34 -19 76 -10 99 20 16 23 18
33 10 70 -18 85 11 129 85 129 102 -1 127 -169 47 -312 -97 -174 -288 -202
-429 -64 -50 50 -109 136 -139 202 l-19 41 26 37 c111 164 141 388 77 565 -11
29 -22 56 -25 58 -3 3 21 18 52 34 130 64 201 192 160 286 -13 30 -31 49 -123
127 -75 65 -159 179 -223 304 -29 55 -52 102 -52 104 0 2 82 4 183 5 191 1
224 4 321 29 275 71 500 324 546 614 13 86 13 544 -1 590 -38 125 -191 191
-306 132 -54 -28 -81 -56 -106 -112 -18 -40 -20 -66 -21 -266 -1 -171 -4 -225
-15 -237 -17 -21 -41 -22 -66 -3 -19 14 -20 34 -21 543 -1 588 1 564 -71 644
-56 62 -104 83 -193 83 -58 0 -84 -4 -117 -21 -57 -31 -96 -70 -124 -123 -22
-41 -24 -59 -27 -224 -2 -98 -1 -189 2 -202 4 -14 21 -33 39 -44 l32 -20 0
-91 c1 -91 1 -92 -26 -101 -15 -5 -31 -17 -36 -26 -4 -9 -10 -147 -13 -307 -5
-263 -7 -293 -24 -318 -22 -32 -26 -31 -32 15 -17 115 -75 290 -141 426 -48
99 -75 125 -121 121 -25 -3 -36 4 -69 46 -22 28 -50 58 -61 69 -18 15 -20 26
-15 62 5 38 2 46 -23 69 -52 48 -173 111 -249 129 -145 35 -299 19 -424 -43
-35 -17 -64 -31 -66 -31 -1 0 -15 35 -30 78 -72 203 -129 272 -225 272 -63 0
-93 -22 -168 -123 -39 -50 -90 -114 -114 -141 l-44 -49 -44 17 c-197 74 -410
44 -597 -85 -202 -140 -380 -446 -449 -776 -9 -45 -21 -80 -26 -77 -4 3 -15
21 -23 41 -13 30 -15 127 -15 632 0 375 -4 610 -10 633 -30 108 -133 190 -244
194 -34 1 -72 -2 -86 -6z"/>
</g>
</svg>
